PathFileType	4	(X/Y/Z)	/Users/itak/Documents/Research/Walk-IL/dataset/trc/00391_00012.trc
DataRate	CameraRate	NumFrames	NumMarkers	Units	OrigDataRate	OrigDataStartFrame	OrigNumFrames
100.000000	100.000000	4	55	mm	100.000000	481	550
Frame#	Time	RPSI			LPSI			L3			STRN			T10			C7			CLAV			RBAK			LBAK			LSHO			LUPA			LAEL			LAOL			LWTS			LWPS			LFRA			LHPS			LHTS			RSHO			RUPA			RAEL			RWTS			RWPS			RFRA			RIFD			RHTS			RHPS			RBHD			LFHD			RFHD			LBHD			LHIP			RHIP			RASI			LASI			LKNE			LTHI			LANK			LTIP			LTOE			LMT1			LMT5			LHEE			RKNE			RTHI			RANK			RTIP			RTOE			RMT1			RMT5			RHEE			LIFD			RAOL			*53			*54			
		X1	Y1	Z1	X2	Y2	Z2	X3	Y3	Z3	X4	Y4	Z4	X5	Y5	Z5	X6	Y6	Z6	X7	Y7	Z7	X8	Y8	Z8	X9	Y9	Z9	X10	Y10	Z10	X11	Y11	Z11	X12	Y12	Z12	X13	Y13	Z13	X14	Y14	Z14	X15	Y15	Z15	X16	Y16	Z16	X17	Y17	Z17	X18	Y18	Z18	X19	Y19	Z19	X20	Y20	Z20	X21	Y21	Z21	X22	Y22	Z22	X23	Y23	Z23	X24	Y24	Z24	X25	Y25	Z25	X26	Y26	Z26	X27	Y27	Z27	X28	Y28	Z28	X29	Y29	Z29	X30	Y30	Z30	X31	Y31	Z31	X32	Y32	Z32	X33	Y33	Z33	X34	Y34	Z34	X35	Y35	Z35	X36	Y36	Z36	X37	Y37	Z37	X38	Y38	Z38	X39	Y39	Z39	X40	Y40	Z40	X41	Y41	Z41	X42	Y42	Z42	X43	Y43	Z43	X44	Y44	Z44	X45	Y45	Z45	X46	Y46	Z46	X47	Y47	Z47	X48	Y48	Z48	X49	Y49	Z49	X50	Y50	Z50	X51	Y51	Z51	X52	Y52	Z52	X53	Y53	Z53	X54	Y54	Z54	X55	Y55	Z55	

482	4.81	-1537.12060546875	990.3740844726562	-9.098076820373535	-1547.126953125	983.2522583007812	-140.6323699951172	-1542.837158203125	1060.701171875	-73.34900665283203	-1303.2392578125	1216.526000976562	-79.31806945800781	-1553.835571289062	1166.795166015625	-75.772216796875	-1508.938598632812	1414.581909179688	-81.76800537109375	-1354.657592773438	1335.9208984375	-78.1712646484375	-1551.662109375	1267.53564453125	-18.09784507751465	-1526.131225585938	1379.710327148438	-186.25732421875	-1439.044555664062	1394.990478515625	-237.4901428222656	-1457.707641601562	1276.93408203125	-306.4694213867188	-1417.359130859375	1082.638916015625	-329.4512023925781	-1473.201782226562	1056.906982421875	-271.8397216796875	-1314.34814453125	874.1674194335938	-279.6376647949219	-1359.99755859375	857.9500122070312	-344.9242248535156	-1391.400512695312	979.544921875	-336.3107604980469	-1340.480590820312	773.4271850585938	-334.6691589355469	-1289.4833984375	778.804931640625	-297.6111450195312	-1453.941040039062	1391.013549804688	75.20574188232422	-1471.70263671875	1326.396484375	132.1278686523438	-1484.588745117188	1066.472412109375	171.0410919189453	-1368.638916015625	843.69775390625	169.1690368652344	-1421.348022460938	838.4019775390625	221.3081207275391	-1466.603149414062	1001.108825683594	192.4673767089844	-1385.823974609375	671.2154541015625	175.4506683349609	-1364.092529296875	738.2799072265625	194.3255462646484	-1426.2138671875	748.9067993164062	223.0462493896484	-1449.89990234375	1597.272094726562	14.40375232696533	-1354.365234375	1610.3359375	-159.3404846191406	-1329.118896484375	1616.275390625	-39.72636413574219	-1499.681640625	1587.009643554688	-139.1246795654297	-1466.4853515625	972.9522094726562	-261.3777770996094	-1448.459228515625	962.5714111328125	100.9202575683594	-1320.132934570312	971.5518188476562	39.07143402099609	-1356.564453125	966.428955078125	-218.1038513183594	-1404.899658203125	477.5740051269531	-249.7328186035156	-1415.927124023438	620.438232421875	-259.4484252929688	-1536.093872070312	45.31888198852539	-233.9166717529297	-1471.769775390625	249.4831848144531	-254.4513702392578	-1327.635498046875	48.62841796875	-159.1815795898438	-1408.142822265625	44.85371398925781	-131.3558807373047	-1406.810791015625	43.95211410522461	-236.9636383056641	-1577.495971679688	39.9594841003418	-178.3578033447266	-1412.5009765625	473.5107727050781	64.62433624267578	-1375.399169921875	733.996826171875	92.70405578613281	-1496.947631835938	60.03882598876953	39.33874893188477	-1410.8232421875	345.4348754882812	46.96877670288086	-1321.354736328125	44.70600128173828	-26.13949966430664	-1394.803344726562	43.36153030395508	-55.86837005615234	-1412.320068359375	55.09095001220703	42.33469009399414	-1573.025146484375	41.56193161010742	-10.95366477966309	-1305.908813476562	695.8510131835938	-277.7668762207031	-1494.016967773438	1055.83837890625	76.52736663818359	nan	nan	nan	nan	nan	nan	
483	4.82	-1538.1005859375	990.5652465820312	-10.05426788330078	-1548.156494140625	983.3484497070312	-141.5335235595703	-1543.899047851562	1060.853271484375	-74.14145660400391	-1304.401733398438	1216.7763671875	-80.31108093261719	-1555.263549804688	1166.9091796875	-76.31289672851562	-1510.325927734375	1414.77294921875	-82.34349822998047	-1355.99609375	1336.223388671875	-79.07676696777344	-1552.937255859375	1267.791748046875	-18.41514015197754	-1527.701904296875	1379.861694335938	-186.7676696777344	-1440.746826171875	1395.209106445312	-238.1992492675781	-1459.618774414062	1277.181640625	-307.2210388183594	-1419.436889648438	1082.850830078125	-330.1904907226562	-1475.157104492188	1057.104614257812	-272.4283447265625	-1317.144287109375	874.05419921875	-279.7604370117188	-1362.127807617188	858.1098022460938	-345.6397094726562	-1393.607666015625	979.7293090820312	-337.0279541015625	-1343.109619140625	773.3471069335938	-335.0138244628906	-1292.586547851562	778.4775390625	-297.2874145507812	-1454.907592773438	1391.314575195312	74.50210571289062	-1472.335571289062	1326.695678710938	131.5380554199219	-1484.566284179688	1066.801391601562	170.5881805419922	-1367.396850585938	844.5392456054688	167.5735778808594	-1419.689453125	838.7465209960938	220.1423950195312	-1466.086303710938	1001.335571289062	191.7814025878906	-1383.422485351562	671.9218139648438	173.5644073486328	-1361.990478515625	739.0892944335938	192.419677734375	-1423.902465820312	749.2794799804688	221.6910858154297	-1451.45556640625	1597.453491210938	13.62098217010498	-1355.9970703125	1610.607788085938	-160.1662445068359	-1330.699096679688	1616.603637695312	-40.6172981262207	-1501.303588867188	1587.111572265625	-139.928955078125	-1467.594360351562	972.900390625	-261.8138732910156	-1449.187133789062	962.9207763671875	99.90284729003906	-1320.95166015625	971.9552612304688	37.92614364624023	-1358.51318359375	966.4208374023438	-218.7920227050781	-1407.146240234375	477.752197265625	-250.9530029296875	-1418.049560546875	620.621826171875	-260.6907958984375	-1536.118530273438	45.21260070800781	-233.9382171630859	-1472.935913085938	249.4130859375	-254.9262390136719	-1327.718383789062	48.75619506835938	-159.2023315429688	-1408.137084960938	44.94915390014648	-131.3960876464844	-1406.793090820312	43.95798110961914	-236.9972534179688	-1577.533081054688	39.77722930908203	-178.3763275146484	-1414.52880859375	473.9877014160156	64.98484802246094	-1376.228637695312	734.6134033203125	92.27748870849609	-1496.998291015625	59.92242050170898	39.51189804077148	-1412.369750976562	345.9498901367188	47.49868774414062	-1321.18896484375	44.71868896484375	-25.8830509185791	-1394.740356445312	43.47492218017578	-55.53539657592773	-1412.26025390625	54.84554290771484	42.53474044799805	-1572.986083984375	41.5891227722168	-10.9233226776123	-1309.998413085938	695.7101440429688	-277.4331665039062	-1494.710571289062	1056.123657226562	76.16762542724609	nan	nan	nan	nan	nan	nan	
484	4.83	-1539.1318359375	990.6049194335938	-11.05274868011475	-1549.184326171875	983.2393798828125	-142.4818725585938	-1545.002197265625	1060.946533203125	-74.98662567138672	-1305.50244140625	1216.931640625	-81.2506103515625	-1556.6376953125	1166.95068359375	-76.94040679931641	-1511.677368164062	1414.903442382812	-82.89275360107422	-1357.261962890625	1336.431396484375	-79.96101379394531	-1554.20849609375	1267.977905273438	-18.71370697021484	-1529.234985351562	1379.932495117188	-187.2476959228516	-1442.414184570312	1395.319946289062	-238.8892059326172	-1461.5478515625	1277.293090820312	-307.9140014648438	-1421.56689453125	1082.943603515625	-330.9110107421875	-1477.134887695312	1057.15185546875	-272.9697875976562	-1319.862426757812	873.8997802734375	-280.0318603515625	-1364.313720703125	858.1719970703125	-346.4118957519531	-1395.855102539062	979.799072265625	-337.762451171875	-1345.678833007812	773.2218627929688	-335.5155944824219	-1295.504272460938	778.1605834960938	-297.2445373535156	-1455.836181640625	1391.529174804688	73.83856201171875	-1472.921508789062	1326.892333984375	130.9821014404297	-1484.37548828125	1067.020629882812	170.2688293457031	-1366.012817382812	845.32080078125	166.0049133300781	-1417.834594726562	839.0494995117188	219.0541076660156	-1465.374755859375	1001.475646972656	191.2163696289062	-1380.877807617188	672.5817260742188	171.7404479980469	-1359.730224609375	739.8287963867188	190.5567016601562	-1421.3515625	749.5899047851562	220.4215240478516	-1452.941162109375	1597.592651367188	12.87628746032715	-1357.590576171875	1610.836059570312	-160.9697265625	-1332.224487304688	1616.881958007812	-41.47006225585938	-1502.868286132812	1587.149536132812	-140.6931915283203	-1468.605590820312	972.6615600585938	-262.145751953125	-1450.010986328125	963.2128295898438	98.86928558349609	-1321.801635742188	972.2901000976562	36.83766174316406	-1360.562377929688	966.2324829101562	-219.4284973144531	-1409.26904296875	477.904052734375	-251.9898681640625	-1420.129638671875	620.7510986328125	-261.7296447753906	-1536.1416015625	45.13453674316406	-233.9026489257812	-1474.035888671875	249.3212280273438	-255.2918548583984	-1327.78662109375	48.83263397216797	-159.1892547607422	-1408.174438476562	44.96819686889648	-131.3991088867188	-1406.775634765625	43.98238372802734	-236.9840698242188	-1577.571411132812	39.60975646972656	-178.33935546875	-1416.475463867188	474.4335327148438	65.32878875732422	-1377.078125	735.1802978515625	91.87076568603516	-1497.046020507812	59.80330657958984	39.68488311767578	-1413.84423828125	346.4320983886719	48.02297592163086	-1321.00634765625	44.73970794677734	-25.60790061950684	-1394.6650390625	43.59259033203125	-55.19497299194336	-1412.181884765625	54.56546783447266	42.73740005493164	-1572.938598632812	41.63346099853516	-10.8861026763916	-1313.75390625	695.5330200195312	-277.4441223144531	-1495.382446289062	1056.273193359375	75.95001220703125	nan	nan	nan	nan	nan	nan	
485	4.84	-1540.198852539062	990.5120849609375	-12.07736778259277	-1550.204345703125	982.9637451171875	-143.4548797607422	-1546.152587890625	1060.990966796875	-75.8677978515625	-1306.546142578125	1217.02294921875	-82.13863372802734	-1557.94091796875	1166.933837890625	-77.66097259521484	-1513.003784179688	1414.981201171875	-83.42192840576172	-1358.45849609375	1336.572143554688	-80.82423400878906	-1555.474243164062	1268.09716796875	-19.0108470916748	-1530.735473632812	1379.935546875	-187.7041778564453	-1444.0517578125	1395.3447265625	-239.5659942626953	-1463.494140625	1277.291015625	-308.5537719726562	-1423.749755859375	1082.935302734375	-331.6023254394531	-1479.115966796875	1057.078369140625	-273.4363708496094	-1322.509887695312	873.702880859375	-280.4525756835938	-1366.578735351562	858.1478271484375	-347.2269287109375	-1398.15234375	979.76904296875	-338.5025939941406	-1348.21484375	773.0675048828125	-336.1781616210938	-1298.257690429688	777.8543090820312	-297.5049133300781	-1456.750122070312	1391.665405273438	73.20890045166016	-1473.495971679688	1326.991088867188	130.4455108642578	-1484.025512695312	1067.125732421875	170.0554656982422	-1364.529052734375	846.0382690429688	164.4642944335938	-1415.812255859375	839.3298950195312	218.0370330810547	-1464.484008789062	1001.53955078125	190.7540130615234	-1378.21044921875	673.2081909179688	170.0187072753906	-1357.331176757812	740.5179443359375	188.7570343017578	-1418.590942382812	749.850341796875	219.2461090087891	-1454.358032226562	1597.695922851562	12.16170501708984	-1359.144287109375	1611.028198242188	-161.7519836425781	-1333.693359375	1617.117065429688	-42.28123092651367	-1504.37646484375	1587.143188476562	-141.4185028076172	-1469.532348632812	972.2974853515625	-262.4278259277344	-1450.923095703125	963.443359375	97.8282470703125	-1322.688720703125	972.561279296875	35.81608581542969	-1362.63134765625	965.9238891601562	-220.0424652099609	-1411.239379882812	478.0510559082031	-252.864990234375	-1422.095581054688	620.8623046875	-262.5813903808594	-1536.167602539062	45.07875823974609	-233.8390808105469	-1475.058837890625	249.2282409667969	-255.5916900634766	-1327.846923828125	48.8681526184082	-159.1513977050781	-1408.24951171875	44.93204498291016	-131.3748016357422	-1406.760009765625	44.01796722412109	-236.9423217773438	-1577.606323242188	39.46673965454102	-178.2784881591797	-1418.325927734375	474.8479919433594	65.64303588867188	-1377.966918945312	735.6803588867188	91.47040557861328	-1497.087158203125	59.69050979614258	39.84298706054688	-1415.25634765625	346.8799133300781	48.52534866333008	-1320.822387695312	44.76457214355469	-25.31535148620605	-1394.581787109375	43.71199035644531	-54.86708831787109	-1412.091430664062	54.27121734619141	42.93989944458008	-1572.886108398438	41.68887710571289	-10.8471212387085	-1317.17431640625	695.3158569335938	-277.8219604492188	-1496.025146484375	1056.29443359375	75.84217071533203	nan	nan	nan	nan	nan	nan	
